<svg xmlns="http://www.w3.org/2000/svg" id="b37098a9-9602-4dae-9da7-bb336c014bf8" width="738.143" height="708.724" data-name="Layer 1" viewBox="0 0 738.143 708.724"><g id="a716a1f1-6b00-4465-bd1c-a2c028b5604e" data-name="Group 1"><path id="e54e6529-6084-4a1d-add3-90a4c5cc374f" fill="#feb9b9" d="M890.94931,718.70684v13.288l11.073.738-.739-15.5Z" data-name="Path 10" transform="translate(-230.92827 -95.63783)"/><path id="aa7fe956-15fa-49a3-841c-8afb545ad874" fill="#2f2e41" d="M893.1633,724.61282l-7.382-1.476s-10.334,18.454-16.978,19.931c-5.813,1.292-19.539,5.975-14.472,12.565a7.276,7.276,0,0,0,6.411,2.681l31.683-2.7s12.549.738,12.549-6.644v-24.36Z" data-name="Path 11" transform="translate(-230.92827 -95.63783)"/><path id="a7ac59d0-4c5e-451c-bf35-4efdeb5633c0" fill="#2f2e41" d="M891.87326,649.92483l-3.18,72.076,20.139,5.3Z" data-name="Path 12" transform="translate(-230.92827 -95.63783)"/><path id="a08adc14-3209-4395-823e-cebe9963673a" fill="#feb9b9" d="M899.29227,747.43986v19.08l15.9,1.06-1.06-22.259Z" data-name="Path 13" transform="translate(-230.92827 -95.63783)"/><path id="ed07c175-0c25-405a-a991-c8f0d9251695" fill="#2f2e41" d="M866.43527,557.70982l8.479,12.719,19.079,114.474,3.18,68.9h31.8l-7.42-167.471s14.839-18.019,4.24-36.038Z" data-name="Path 14" transform="translate(-230.92827 -95.63783)"/><path id="b2f37150-101e-4b97-a3bb-c9b520730644" fill="#2f2e41" d="M902.47226,755.91882l-10.6-2.12s-14.839,26.5-24.379,28.618c-8.177,1.817-27.256,8.307-21.193,17.466a10.4,10.4,0,0,0,9.591,4.427l45.526-3.874s18.019,1.06,18.019-9.539v-34.978Z" data-name="Path 15" transform="translate(-230.92827 -95.63783)"/><circle id="e8ae8751-5f15-4e1d-ab3e-c03bed5425dd" cx="672.605" cy="294.601" r="22.259" fill="#feb9b9" data-name="Ellipse 1"/><path id="a4692f39-5944-448e-9eb0-f63e3a7ffbbc" fill="#feb9b9" d="M890.81327,401.89683v31.8c0,1.06,24.379-2.12,24.379-2.12s1.06-29.678,1.06-32.858Z" data-name="Path 16" transform="translate(-230.92827 -95.63783)"/><path id="e4631c2d-bf0b-4189-a249-c10b314651dc" fill="#3f3d56" d="M917.31229,415.67784s-13.779-3.18-38.158,12.719h-4.24l-1.06,24.379s-14.839,15.9-12.719,22.259c0,0-18.019,21.2-10.6,29.678,0,0-16.959,20.139-9.539,28.618,0,0-18.019,23.319-7.42,26.5,0,0,23.319,0,36.038,2.12s65.716-9.539,65.716-9.539,1.06-27.559,0-27.559h-1.06s4.24-25.439,2.12-26.5c0,0,1.06-28.618-2.12-29.678Z" data-name="Path 17" transform="translate(-230.92827 -95.63783)"/><path id="b575756a-b91e-42cf-a15b-1b60f6a2610c" fill="#e6e6e6" d="M913.90927,440.08384a23.30005,23.30005,0,0,0-18.033,13.366,38.04612,38.04612,0,0,0-2.945,21.581c3.18,21.2,10.6,27.558,10.6,27.558s-7.42,3.18-5.3,6.36-2.12,3.18-2.12,3.18,0,1.06-3.18,3.18-5.3,1.06-6.36,2.12-5.3,0-5.3,0-12.719,22.259,0,24.379,18.019-8.48,23.319-7.42,30.738-7.42,28.618-27.559-11.659-67.836-19.079-66.776Z" data-name="Path 18" transform="translate(-230.92827 -95.63783)"/><path id="b8099647-f139-4340-a743-fc574e29cdbc" fill="#2f2e41" d="M883.86826,369.02983a14.38392,14.38392,0,0,1,8.474-9.834c4.171-1.679,10.2-6.508,13.984-4.078,1.688,1.085,3.139,2.525,4.894,3.5,2.836,1.573,6.191,1.794,9.392,2.319,8.049,1.321,14.792,10.2,20.416,16.111s8.871,14.241,7.861,22.334c-.667,5.339-3.067,10.283-4.655,15.424s-2.3,10.979.274,15.7c2.951,5.42,9.33,7.907,13.637,12.327a20.587,20.587,0,0,1,2.81994,24.241,21.04058,21.04058,0,0,0-2.66894,4.9c-.5,1.8-.057,4.06,1.6,4.923a13.073,13.073,0,0,0,2.339.671c2.655.8,4.27295,3.526,4.981,6.208s.77,5.516,1.642,8.15c2.13,6.431-12.517,5.736-6.624,9.077-11.64294-.313-2.464,3.979-13.731,6.93-4.843,1.268-10.433,3.007-14.484.065-2.777-2.016-3.835-5.7-3.914-9.126s.634-6.843.561-10.273a25.37306,25.37306,0,0,0-10-19.06c-3.469-2.689-7.549-4.551-10.829-7.468a22.255,22.255,0,0,1-6.936-20.4c.508-2.663,1.516-5.281,1.366-7.987-.3-5.341-4.949-9.52-5.946-14.775-1.047-5.521,2.094-10.9,2.968-16.446a37.32956,37.32956,0,0,0-.179-10.159c-.659-5.579-1.651-11.365-4.959-15.906-3.111-4.271-7.418-7.105-12.693-7.418-1.7-.1.681-1.558,0,0" data-name="Path 19" transform="translate(-230.92827 -95.63783)"/><ellipse id="b40a0ec8-8cea-415f-b8a8-4fdbfa219479" cx="671.015" cy="296.191" fill="#feb9b9" data-name="Ellipse 2" rx="2.12" ry="4.24"/></g><path id="fc914514-1042-4f3e-9382-2a2bd3a05a2f" fill="#e6e6e6" d="M274.95425,95.63784a2.73,2.73,0,0,0-2.727,2.727v93.012a2.73,2.73,0,0,0,2.727,2.727h317.156a2.73,2.73,0,0,0,2.727-2.727v-93.012a2.73,2.73,0,0,0-2.727-2.727Z" data-name="Path 62" transform="translate(-230.92827 -95.63783)"/><path id="fc60a940-5b5f-47e1-886f-8b9349204f05" fill="#fff" d="M279.06023,187.27084h308.942v-84.8h-308.942Z" data-name="Path 63" transform="translate(-230.92827 -95.63783)"/><path id="b37dca77-34e7-4938-924b-74ea49a8e34b" fill="#cd3545" d="M549.00626,169.67782a4.5175,4.5175,0,1,0,0,9.035h18.069a4.5175,4.5175,0,1,0,0-9.035Z" data-name="Path 64" transform="translate(-230.92827 -95.63783)"/><rect id="a114a1b8-363a-4115-bcea-0275bda15cb1" width="208.588" height="1.189" x="132.077" y="65.278" fill="#e6e6e6" data-name="Rectangle 9"/><circle id="fd059875-cd6f-429e-81eb-c199f1a3d666" cx="88.476" cy="49.233" r="26.311" fill="#e6e6e6" data-name="Ellipse 12"/><path id="ad693766-5e26-437f-8d3d-58ce33ee9e84" fill="#3f3d56" d="M363.33725,154.27884l-.659-.989,21.675-14.45,14.863,7.135,21.379-13.659.289.123,42.24,18.019,33.867-16.637,32.887,13.333,41.323,8.4.788.89-41.875-7.911-33.077-13.411-33.88,16.642-42.452-18.109-21.408,13.677-14.85-7.128Z" data-name="Path 65" transform="translate(-230.92827 -95.63783)"/><path id="ff424c2d-4733-4249-9b35-4eb43ebe2556" fill="#e6e6e6" d="M366.86824,170.30085a3.863,3.863,0,0,0,0,7.725h40.41a3.863,3.863,0,0,0,.1239-7.725q-.06189-.001-.1239,0Z" data-name="Path 66" transform="translate(-230.92827 -95.63783)"/><path fill="#fff" d="M329.98761,144.54406a1.57789,1.57789,0,0,0-2.23157,0l-6.77386,6.7738V134.61431a1.57795,1.57795,0,0,0-3.15589,0v16.70355l-6.77386-6.7738a1.57794,1.57794,0,1,0-2.23157,2.23151l9.46759,9.46759a1.578,1.578,0,0,0,2.23157,0l9.46759-9.46759A1.57792,1.57792,0,0,0,329.98761,144.54406Z" transform="translate(-230.92827 -95.63783)"/><path id="ebf544e0-cedc-491d-9ace-ce79788cc3b4" fill="#e6e6e6" d="M399.72923,244.60083a2.73,2.73,0,0,0-2.727,2.727v93.012a2.73,2.73,0,0,0,2.727,2.727h317.157a2.73,2.73,0,0,0,2.727-2.727v-93.012a2.73,2.73,0,0,0-2.727-2.727Z" data-name="Path 68" transform="translate(-230.92827 -95.63783)"/><path id="f05ecdaf-6a8f-49c4-b8a7-f7e5ce9efcf7" fill="#fff" d="M403.83623,336.23384h308.943v-84.8h-308.943Z" data-name="Path 69" transform="translate(-230.92827 -95.63783)"/><path id="a9f7bc9d-00a6-4157-bba1-ffc7ec111a68" fill="#cd3545" d="M673.78221,318.64285a4.51749,4.51749,0,0,0,0,9.035h18.06708a4.5175,4.5175,0,0,0,0-9.035h-18.069Z" data-name="Path 70" transform="translate(-230.92827 -95.63783)"/><rect id="a15d3d52-efbb-4636-8d15-228635c5d6e5" width="208.588" height="1.189" x="256.853" y="214.242" fill="#e6e6e6" data-name="Rectangle 10"/><circle id="e4ee77d8-efe6-4a2a-a3ed-71b8f3ee957e" cx="213.251" cy="198.197" r="26.311" fill="#cd3545" data-name="Ellipse 13"/><path id="fc1c89ac-2b6e-4831-b128-0ac2ab1fa850" fill="#3f3d56" d="M488.11125,303.24284l-.66-.989,21.675-14.45,14.864,7.135,21.379-13.659.289.123,42.239,18.019,33.868-16.637,32.887,13.332,41.323-36.6.788.89-41.87512,37.086-33.077-13.41-33.879,16.642-42.452-18.109-21.4079,13.677-14.846-7.125Z" data-name="Path 71" transform="translate(-230.92827 -95.63783)"/><path id="bd690ac4-3df0-4871-95d5-adaa934b7c24" fill="#e6e6e6" d="M491.64424,319.26383a3.863,3.863,0,1,0-.12579,7.725q.0629.001.12579,0h40.41a3.863,3.863,0,0,0,0-7.725Z" data-name="Path 72" transform="translate(-230.92827 -95.63783)"/><path fill="#fff" d="M433.59585,294.16161a1.57789,1.57789,0,0,0,2.23157,0l6.77387-6.7738v16.70355a1.57794,1.57794,0,1,0,3.15588,0V287.38781l6.77387,6.7738a1.57793,1.57793,0,1,0,2.23156-2.2315l-9.46759-9.46759a1.578,1.578,0,0,0-2.23157,0l-9.46759,9.46759A1.57791,1.57791,0,0,0,433.59585,294.16161Z" transform="translate(-230.92827 -95.63783)"/><path id="b1a491a7-739b-4f1f-bff8-dbf70f6892c8" fill="#e6e6e6" d="M233.65525,393.56484a2.73,2.73,0,0,0-2.727,2.727v93.012a2.73,2.73,0,0,0,2.727,2.727h317.156a2.73,2.73,0,0,0,2.727-2.727v-93.012a2.73,2.73,0,0,0-2.727-2.727Z" data-name="Path 56" transform="translate(-230.92827 -95.63783)"/><path id="acd48b1a-d10a-4276-b388-f016adebff0c" fill="#fff" d="M237.76223,485.19786h308.943v-84.8h-308.943Z" data-name="Path 57" transform="translate(-230.92827 -95.63783)"/><path id="bed21912-b6c9-41df-a59b-963435bac71a" fill="#cd3545" d="M507.70726,467.60583a4.51749,4.51749,0,1,0,0,9.035h18.069a4.51749,4.51749,0,1,0,0-9.035Z" data-name="Path 58" transform="translate(-230.92827 -95.63783)"/><rect id="a26455fb-834b-4368-afb2-80d86a75d46a" width="208.588" height="1.189" x="90.778" y="363.206" fill="#e6e6e6" data-name="Rectangle 8"/><circle id="f17c58cd-37a1-42e1-9e5f-26c2ec8825b4" cx="47.177" cy="347.16" r="26.311" fill="#cd3545" data-name="Ellipse 11"/><path id="b803193f-4714-40c6-8606-08b9dea6d22d" fill="#3f3d56" d="M322.03624,452.20686l-.659-.989,21.675-14.451,14.863,7.135,21.38-13.663,42.528,18.141,33.867-16.637,32.883,13.337,41.323-16.6.788.89-41.87,17.08893-33.077-13.41-33.879,16.642-42.452-18.109-21.407,13.678-14.85-7.128Z" data-name="Path 59" transform="translate(-230.92827 -95.63783)"/><path id="b19b31b4-3a52-4fc9-8ed4-dc6729deb0ed" fill="#e6e6e6" d="M325.56924,468.2268a3.863,3.863,0,0,0,0,7.725h40.41a3.863,3.863,0,0,0,.12579-7.725q-.06289-.001-.12579,0Z" data-name="Path 60" transform="translate(-230.92827 -95.63783)"/><path fill="#fff" d="M267.52188,443.12463a1.57789,1.57789,0,0,0,2.23157,0l6.77386-6.77381v16.70355a1.57795,1.57795,0,1,0,3.15589,0V436.35082l6.77386,6.77381a1.57794,1.57794,0,1,0,2.23157-2.23151l-9.46759-9.46759a1.578,1.578,0,0,0-2.23157,0l-9.46759,9.46759A1.57792,1.57792,0,0,0,267.52188,443.12463Z" transform="translate(-230.92827 -95.63783)"/></svg>